<!DOCTYPE svg PUBLIC "-//W3C//DTD SVG 1.1//EN" "http://www.w3.org/Graphics/SVG/1.1/DTD/svg11.dtd">
<svg xmlns="http://www.w3.org/2000/svg" version="1.1" width="57.2mm" height="38.15mm" viewBox="-85.75 47.6 57.2 38.15">
            <title>Picture generated by PcbDraw </title>
            <desc>Picture generated by PcbDraw</desc>
        <defs><clipPath id="cut-off"><path d=" M 85.725 83.725 A 2 2 0 0 1 83.725 85.725 L 30.575 85.725 A 2 2 0 0 1 28.575 83.725 L 28.575 49.625 A 2 2 0 0 1 30.575 47.625 L 83.725 47.625 A 2 2 0 0 1 85.725 49.625 L 85.725 83.725  M 31.1 82.7 A 0.5 0.5 0 0 0 31.6 83.2 L 44.6 83.2 A 0.5 0.5 0 0 0 45.1 82.7 L 45.1 69.7 A 0.5 0.5 0 0 0 44.6 69.2 L 31.6 69.2 A 0.5 0.5 0 0 0 31.1 69.7 L 31.1 82.7  M 69.2 82.7 A 0.5 0.5 0 0 0 69.7 83.2 L 82.7 83.2 A 0.5 0.5 0 0 0 83.2 82.7 L 83.2 69.7 A 0.5 0.5 0 0 0 82.7 69.2 L 69.7 69.2 A 0.5 0.5 0 0 0 69.2 69.7 L 69.2 82.7  M 50.15 63.65 A 0.5 0.5 0 0 0 50.65 64.15 L 63.65 64.15 A 0.5 0.5 0 0 0 64.15 63.65 L 64.15 50.65 A 0.5 0.5 0 0 0 63.65 50.15 L 50.65 50.15 A 0.5 0.5 0 0 0 50.15 50.65 L 50.15 63.65  M 50.15 82.7 A 0.5 0.5 0 0 0 50.65 83.2 L 63.65 83.2 A 0.5 0.5 0 0 0 64.15 82.7 L 64.15 69.7 A 0.5 0.5 0 0 0 63.65 69.2 L 50.65 69.2 A 0.5 0.5 0 0 0 50.15 69.7 L 50.15 82.7  M 69.2 63.65 A 0.5 0.5 0 0 0 69.7 64.15 L 82.7 64.15 A 0.5 0.5 0 0 0 83.2 63.65 L 83.2 50.65 A 0.5 0.5 0 0 0 82.7 50.15 L 69.7 50.15 A 0.5 0.5 0 0 0 69.2 50.65 L 69.2 63.65  M 31.1 63.65 A 0.5 0.5 0 0 0 31.6 64.15 L 44.6 64.15 A 0.5 0.5 0 0 0 45.1 63.65 L 45.1 50.65 A 0.5 0.5 0 0 0 44.6 50.15 L 31.6 50.15 A 0.5 0.5 0 0 0 31.1 50.65 L 31.1 63.65 " style="fill-rule: evenodd;"/></clipPath><mask id="pads-mask"><g style="fill:none;  stroke:#ffffff; stroke-width:0.5000; stroke-opacity:1;  stroke-linecap:round; stroke-linejoin:round;">
<path d="M30.8500 69.7000 L30.8500 82.7000 "/>
<path d="M31.6000 83.4500 L44.6000 83.4500 "/>
<path d="M44.6000 68.9500 L31.6000 68.9500 "/>
<path d="M45.3500 82.7000 L45.3500 69.7000 "/>
<path d="M31.6000 68.9500 A0.7500 0.7500 0.0 0 0 30.8500 69.7000"/>
<path d="M30.8500 82.7000 A0.7500 0.7500 0.0 0 0 31.6000 83.4500"/>
<path d="M45.3500 69.7000 A0.7500 0.7500 0.0 0 0 44.6000 68.9500"/>
<path d="M44.6000 83.4500 A0.7500 0.7500 0.0 0 0 45.3500 82.7000"/>
<path d="M68.9500 69.7000 L68.9500 82.7000 "/>
<path d="M69.7000 83.4500 L82.7000 83.4500 "/>
<path d="M82.7000 68.9500 L69.7000 68.9500 "/>
<path d="M83.4500 82.7000 L83.4500 69.7000 "/>
<path d="M69.7000 68.9500 A0.7500 0.7500 0.0 0 0 68.9500 69.7000"/>
<path d="M68.9500 82.7000 A0.7500 0.7500 0.0 0 0 69.7000 83.4500"/>
<path d="M83.4500 69.7000 A0.7500 0.7500 0.0 0 0 82.7000 68.9500"/>
<path d="M82.7000 83.4500 A0.7500 0.7500 0.0 0 0 83.4500 82.7000"/>
<path d="M49.9000 50.6500 L49.9000 63.6500 "/>
<path d="M50.6500 64.4000 L63.6500 64.4000 "/>
<path d="M63.6500 49.9000 L50.6500 49.9000 "/>
<path d="M64.4000 63.6500 L64.4000 50.6500 "/>
<path d="M50.6500 49.9000 A0.7500 0.7500 0.0 0 0 49.9000 50.6500"/>
<path d="M49.9000 63.6500 A0.7500 0.7500 0.0 0 0 50.6500 64.4000"/>
<path d="M64.4000 50.6500 A0.7500 0.7500 0.0 0 0 63.6500 49.9000"/>
<path d="M63.6500 64.4000 A0.7500 0.7500 0.0 0 0 64.4000 63.6500"/>
<path d="M49.9000 69.7000 L49.9000 82.7000 "/>
<path d="M50.6500 83.4500 L63.6500 83.4500 "/>
<path d="M63.6500 68.9500 L50.6500 68.9500 "/>
<path d="M64.4000 82.7000 L64.4000 69.7000 "/>
<path d="M50.6500 68.9500 A0.7500 0.7500 0.0 0 0 49.9000 69.7000"/>
<path d="M49.9000 82.7000 A0.7500 0.7500 0.0 0 0 50.6500 83.4500"/>
<path d="M64.4000 69.7000 A0.7500 0.7500 0.0 0 0 63.6500 68.9500"/>
<path d="M63.6500 83.4500 A0.7500 0.7500 0.0 0 0 64.4000 82.7000"/>
<path d="M68.9500 50.6500 L68.9500 63.6500 "/>
<path d="M69.7000 64.4000 L82.7000 64.4000 "/>
<path d="M82.7000 49.9000 L69.7000 49.9000 "/>
<path d="M83.4500 63.6500 L83.4500 50.6500 "/>
<path d="M69.7000 49.9000 A0.7500 0.7500 0.0 0 0 68.9500 50.6500"/>
<path d="M68.9500 63.6500 A0.7500 0.7500 0.0 0 0 69.7000 64.4000"/>
<path d="M83.4500 50.6500 A0.7500 0.7500 0.0 0 0 82.7000 49.9000"/>
<path d="M82.7000 64.4000 A0.7500 0.7500 0.0 0 0 83.4500 63.6500"/>
<path d="M30.8500 50.6500 L30.8500 63.6500 "/>
<path d="M31.6000 64.4000 L44.6000 64.4000 "/>
<path d="M44.6000 49.9000 L31.6000 49.9000 "/>
<path d="M45.3500 63.6500 L45.3500 50.6500 "/>
<path d="M31.6000 49.9000 A0.7500 0.7500 0.0 0 0 30.8500 50.6500"/>
<path d="M30.8500 63.6500 A0.7500 0.7500 0.0 0 0 31.6000 64.4000"/>
<path d="M45.3500 50.6500 A0.7500 0.7500 0.0 0 0 44.6000 49.9000"/>
<path d="M44.6000 64.4000 A0.7500 0.7500 0.0 0 0 45.3500 63.6500"/>
</g> 
</mask><mask id="pads-mask-silkscreen"><rect x="28.55" y="47.6" width="57.2" height="38.15" fill="white"/><g style="fill:none;  stroke:#000000; stroke-width:0.5000; stroke-opacity:1;  stroke-linecap:round; stroke-linejoin:round;">
<path d="M30.8500 69.7000 L30.8500 82.7000 "/>
<path d="M31.6000 83.4500 L44.6000 83.4500 "/>
<path d="M44.6000 68.9500 L31.6000 68.9500 "/>
<path d="M45.3500 82.7000 L45.3500 69.7000 "/>
<path d="M31.6000 68.9500 A0.7500 0.7500 0.0 0 0 30.8500 69.7000"/>
<path d="M30.8500 82.7000 A0.7500 0.7500 0.0 0 0 31.6000 83.4500"/>
<path d="M45.3500 69.7000 A0.7500 0.7500 0.0 0 0 44.6000 68.9500"/>
<path d="M44.6000 83.4500 A0.7500 0.7500 0.0 0 0 45.3500 82.7000"/>
<path d="M68.9500 69.7000 L68.9500 82.7000 "/>
<path d="M69.7000 83.4500 L82.7000 83.4500 "/>
<path d="M82.7000 68.9500 L69.7000 68.9500 "/>
<path d="M83.4500 82.7000 L83.4500 69.7000 "/>
<path d="M69.7000 68.9500 A0.7500 0.7500 0.0 0 0 68.9500 69.7000"/>
<path d="M68.9500 82.7000 A0.7500 0.7500 0.0 0 0 69.7000 83.4500"/>
<path d="M83.4500 69.7000 A0.7500 0.7500 0.0 0 0 82.7000 68.9500"/>
<path d="M82.7000 83.4500 A0.7500 0.7500 0.0 0 0 83.4500 82.7000"/>
<path d="M49.9000 50.6500 L49.9000 63.6500 "/>
<path d="M50.6500 64.4000 L63.6500 64.4000 "/>
<path d="M63.6500 49.9000 L50.6500 49.9000 "/>
<path d="M64.4000 63.6500 L64.4000 50.6500 "/>
<path d="M50.6500 49.9000 A0.7500 0.7500 0.0 0 0 49.9000 50.6500"/>
<path d="M49.9000 63.6500 A0.7500 0.7500 0.0 0 0 50.6500 64.4000"/>
<path d="M64.4000 50.6500 A0.7500 0.7500 0.0 0 0 63.6500 49.9000"/>
<path d="M63.6500 64.4000 A0.7500 0.7500 0.0 0 0 64.4000 63.6500"/>
<path d="M49.9000 69.7000 L49.9000 82.7000 "/>
<path d="M50.6500 83.4500 L63.6500 83.4500 "/>
<path d="M63.6500 68.9500 L50.6500 68.9500 "/>
<path d="M64.4000 82.7000 L64.4000 69.7000 "/>
<path d="M50.6500 68.9500 A0.7500 0.7500 0.0 0 0 49.9000 69.7000"/>
<path d="M49.9000 82.7000 A0.7500 0.7500 0.0 0 0 50.6500 83.4500"/>
<path d="M64.4000 69.7000 A0.7500 0.7500 0.0 0 0 63.6500 68.9500"/>
<path d="M63.6500 83.4500 A0.7500 0.7500 0.0 0 0 64.4000 82.7000"/>
<path d="M68.9500 50.6500 L68.9500 63.6500 "/>
<path d="M69.7000 64.4000 L82.7000 64.4000 "/>
<path d="M82.7000 49.9000 L69.7000 49.9000 "/>
<path d="M83.4500 63.6500 L83.4500 50.6500 "/>
<path d="M69.7000 49.9000 A0.7500 0.7500 0.0 0 0 68.9500 50.6500"/>
<path d="M68.9500 63.6500 A0.7500 0.7500 0.0 0 0 69.7000 64.4000"/>
<path d="M83.4500 50.6500 A0.7500 0.7500 0.0 0 0 82.7000 49.9000"/>
<path d="M82.7000 64.4000 A0.7500 0.7500 0.0 0 0 83.4500 63.6500"/>
<path d="M30.8500 50.6500 L30.8500 63.6500 "/>
<path d="M31.6000 64.4000 L44.6000 64.4000 "/>
<path d="M44.6000 49.9000 L31.6000 49.9000 "/>
<path d="M45.3500 63.6500 L45.3500 50.6500 "/>
<path d="M31.6000 49.9000 A0.7500 0.7500 0.0 0 0 30.8500 50.6500"/>
<path d="M30.8500 63.6500 A0.7500 0.7500 0.0 0 0 31.6000 64.4000"/>
<path d="M45.3500 50.6500 A0.7500 0.7500 0.0 0 0 44.6000 49.9000"/>
<path d="M44.6000 64.4000 A0.7500 0.7500 0.0 0 0 45.3500 63.6500"/>
</g> 
</mask><mask id="hole-mask"><g><rect x="28.55" y="47.6" fill="white" width="57.2" height="38.15"/></g></mask></defs><g transform="scale(-1,1)" id="boardContainer"><g id="substrate" clip-path="url(#cut-off)" mask="url(#hole-mask)"><g id="substrate-board" style="fill:#1d1918; stroke:#1d1918;"><path d=" M 85.725 83.725 A 2 2 0 0 1 83.725 85.725 L 30.575 85.725 A 2 2 0 0 1 28.575 83.725 L 28.575 49.625 A 2 2 0 0 1 30.575 47.625 L 83.725 47.625 A 2 2 0 0 1 85.725 49.625 L 85.725 83.725  M 31.1 82.7 A 0.5 0.5 0 0 0 31.6 83.2 L 44.6 83.2 A 0.5 0.5 0 0 0 45.1 82.7 L 45.1 69.7 A 0.5 0.5 0 0 0 44.6 69.2 L 31.6 69.2 A 0.5 0.5 0 0 0 31.1 69.7 L 31.1 82.7  M 69.2 82.7 A 0.5 0.5 0 0 0 69.7 83.2 L 82.7 83.2 A 0.5 0.5 0 0 0 83.2 82.7 L 83.2 69.7 A 0.5 0.5 0 0 0 82.7 69.2 L 69.7 69.2 A 0.5 0.5 0 0 0 69.2 69.7 L 69.2 82.7  M 50.15 63.65 A 0.5 0.5 0 0 0 50.65 64.15 L 63.65 64.15 A 0.5 0.5 0 0 0 64.15 63.65 L 64.15 50.65 A 0.5 0.5 0 0 0 63.65 50.15 L 50.65 50.15 A 0.5 0.5 0 0 0 50.15 50.65 L 50.15 63.65  M 50.15 82.7 A 0.5 0.5 0 0 0 50.65 83.2 L 63.65 83.2 A 0.5 0.5 0 0 0 64.15 82.7 L 64.15 69.7 A 0.5 0.5 0 0 0 63.65 69.2 L 50.65 69.2 A 0.5 0.5 0 0 0 50.15 69.7 L 50.15 82.7  M 69.2 63.65 A 0.5 0.5 0 0 0 69.7 64.15 L 82.7 64.15 A 0.5 0.5 0 0 0 83.2 63.65 L 83.2 50.65 A 0.5 0.5 0 0 0 82.7 50.15 L 69.7 50.15 A 0.5 0.5 0 0 0 69.2 50.65 L 69.2 63.65  M 31.1 63.65 A 0.5 0.5 0 0 0 31.6 64.15 L 44.6 64.15 A 0.5 0.5 0 0 0 45.1 63.65 L 45.1 50.65 A 0.5 0.5 0 0 0 44.6 50.15 L 31.6 50.15 A 0.5 0.5 0 0 0 31.1 50.65 L 31.1 63.65 " style="fill-rule: evenodd;"/><g style="fill: none;stroke: #1d1918;stroke-width: 0.0500;stroke-opacity: 1;stroke-linecap: round;stroke-linejoin: round">
<path d="M85.7250 49.6250 L85.7250 83.7250 "/>
<path d="M28.5750 83.7250 L28.5750 49.6250 "/>
<path d="M30.5750 47.6250 L83.7250 47.6250 "/>
<path d="M30.5750 47.6250 A2.0000 2.0000 0.0 0 0 28.5750 49.6250"/>
<path d="M28.5750 83.7250 A2.0000 2.0000 0.0 0 0 30.5750 85.7250"/>
<path d="M83.7250 85.7250 A2.0000 2.0000 0.0 0 0 85.7250 83.7250"/>
<path d="M85.7250 49.6250 A2.0000 2.0000 0.0 0 0 83.7250 47.6250"/>
<path d="M83.7250 85.7250 L30.5750 85.7250 "/>
<path d="M31.1000 69.7000 L31.1000 82.7000 "/>
<path d="M31.6000 83.2000 L44.6000 83.2000 "/>
<path d="M44.6000 69.2000 L31.6000 69.2000 "/>
<path d="M45.1000 82.7000 L45.1000 69.7000 "/>
<path d="M31.6000 69.2000 A0.5000 0.5000 0.0 0 0 31.1000 69.7000"/>
<path d="M31.1000 82.7000 A0.5000 0.5000 0.0 0 0 31.6000 83.2000"/>
<path d="M45.1000 69.7000 A0.5000 0.5000 0.0 0 0 44.6000 69.2000"/>
<path d="M44.6000 83.2000 A0.5000 0.5000 0.0 0 0 45.1000 82.7000"/>
<path d="M69.2000 69.7000 L69.2000 82.7000 "/>
<path d="M69.7000 83.2000 L82.7000 83.2000 "/>
<path d="M82.7000 69.2000 L69.7000 69.2000 "/>
<path d="M83.2000 82.7000 L83.2000 69.7000 "/>
<path d="M69.7000 69.2000 A0.5000 0.5000 0.0 0 0 69.2000 69.7000"/>
<path d="M69.2000 82.7000 A0.5000 0.5000 0.0 0 0 69.7000 83.2000"/>
<path d="M83.2000 69.7000 A0.5000 0.5000 0.0 0 0 82.7000 69.2000"/>
<path d="M82.7000 83.2000 A0.5000 0.5000 0.0 0 0 83.2000 82.7000"/>
<path d="M50.1500 50.6500 L50.1500 63.6500 "/>
<path d="M50.6500 64.1500 L63.6500 64.1500 "/>
<path d="M63.6500 50.1500 L50.6500 50.1500 "/>
<path d="M64.1500 63.6500 L64.1500 50.6500 "/>
<path d="M50.6500 50.1500 A0.5000 0.5000 0.0 0 0 50.1500 50.6500"/>
<path d="M50.1500 63.6500 A0.5000 0.5000 0.0 0 0 50.6500 64.1500"/>
<path d="M64.1500 50.6500 A0.5000 0.5000 0.0 0 0 63.6500 50.1500"/>
<path d="M63.6500 64.1500 A0.5000 0.5000 0.0 0 0 64.1500 63.6500"/>
<path d="M50.1500 69.7000 L50.1500 82.7000 "/>
<path d="M50.6500 83.2000 L63.6500 83.2000 "/>
<path d="M63.6500 69.2000 L50.6500 69.2000 "/>
<path d="M64.1500 82.7000 L64.1500 69.7000 "/>
<path d="M50.6500 69.2000 A0.5000 0.5000 0.0 0 0 50.1500 69.7000"/>
<path d="M50.1500 82.7000 A0.5000 0.5000 0.0 0 0 50.6500 83.2000"/>
<path d="M64.1500 69.7000 A0.5000 0.5000 0.0 0 0 63.6500 69.2000"/>
<path d="M63.6500 83.2000 A0.5000 0.5000 0.0 0 0 64.1500 82.7000"/>
<path d="M69.2000 50.6500 L69.2000 63.6500 "/>
<path d="M69.7000 64.1500 L82.7000 64.1500 "/>
<path d="M82.7000 50.1500 L69.7000 50.1500 "/>
<path d="M83.2000 63.6500 L83.2000 50.6500 "/>
<path d="M69.7000 50.1500 A0.5000 0.5000 0.0 0 0 69.2000 50.6500"/>
<path d="M69.2000 63.6500 A0.5000 0.5000 0.0 0 0 69.7000 64.1500"/>
<path d="M83.2000 50.6500 A0.5000 0.5000 0.0 0 0 82.7000 50.1500"/>
<path d="M82.7000 64.1500 A0.5000 0.5000 0.0 0 0 83.2000 63.6500"/>
<path d="M31.1000 50.6500 L31.1000 63.6500 "/>
<path d="M31.6000 64.1500 L44.6000 64.1500 "/>
<path d="M44.6000 50.1500 L31.6000 50.1500 "/>
<path d="M45.1000 63.6500 L45.1000 50.6500 "/>
<path d="M31.6000 50.1500 A0.5000 0.5000 0.0 0 0 31.1000 50.6500"/>
<path d="M31.1000 63.6500 A0.5000 0.5000 0.0 0 0 31.6000 64.1500"/>
<path d="M45.1000 50.6500 A0.5000 0.5000 0.0 0 0 44.6000 50.1500"/>
<path d="M44.6000 64.1500 A0.5000 0.5000 0.0 0 0 45.1000 63.6500"/>
</g> 
</g><g id="substrate-clad" style="fill:#72786c; stroke:#72786c;"><g style="fill: none;stroke: #72786c;stroke-width: 0.5000;stroke-opacity: 1;stroke-linecap: round;stroke-linejoin: round">
<path d="M30.8500 69.7000 L30.8500 82.7000 "/>
<path d="M31.6000 83.4500 L44.6000 83.4500 "/>
<path d="M44.6000 68.9500 L31.6000 68.9500 "/>
<path d="M45.3500 82.7000 L45.3500 69.7000 "/>
<path d="M31.6000 68.9500 A0.7500 0.7500 0.0 0 0 30.8500 69.7000"/>
<path d="M30.8500 82.7000 A0.7500 0.7500 0.0 0 0 31.6000 83.4500"/>
<path d="M45.3500 69.7000 A0.7500 0.7500 0.0 0 0 44.6000 68.9500"/>
<path d="M44.6000 83.4500 A0.7500 0.7500 0.0 0 0 45.3500 82.7000"/>
<path d="M68.9500 69.7000 L68.9500 82.7000 "/>
<path d="M69.7000 83.4500 L82.7000 83.4500 "/>
<path d="M82.7000 68.9500 L69.7000 68.9500 "/>
<path d="M83.4500 82.7000 L83.4500 69.7000 "/>
<path d="M69.7000 68.9500 A0.7500 0.7500 0.0 0 0 68.9500 69.7000"/>
<path d="M68.9500 82.7000 A0.7500 0.7500 0.0 0 0 69.7000 83.4500"/>
<path d="M83.4500 69.7000 A0.7500 0.7500 0.0 0 0 82.7000 68.9500"/>
<path d="M82.7000 83.4500 A0.7500 0.7500 0.0 0 0 83.4500 82.7000"/>
<path d="M49.9000 50.6500 L49.9000 63.6500 "/>
<path d="M50.6500 64.4000 L63.6500 64.4000 "/>
<path d="M63.6500 49.9000 L50.6500 49.9000 "/>
<path d="M64.4000 63.6500 L64.4000 50.6500 "/>
<path d="M50.6500 49.9000 A0.7500 0.7500 0.0 0 0 49.9000 50.6500"/>
<path d="M49.9000 63.6500 A0.7500 0.7500 0.0 0 0 50.6500 64.4000"/>
<path d="M64.4000 50.6500 A0.7500 0.7500 0.0 0 0 63.6500 49.9000"/>
<path d="M63.6500 64.4000 A0.7500 0.7500 0.0 0 0 64.4000 63.6500"/>
<path d="M49.9000 69.7000 L49.9000 82.7000 "/>
<path d="M50.6500 83.4500 L63.6500 83.4500 "/>
<path d="M63.6500 68.9500 L50.6500 68.9500 "/>
<path d="M64.4000 82.7000 L64.4000 69.7000 "/>
<path d="M50.6500 68.9500 A0.7500 0.7500 0.0 0 0 49.9000 69.7000"/>
<path d="M49.9000 82.7000 A0.7500 0.7500 0.0 0 0 50.6500 83.4500"/>
<path d="M64.4000 69.7000 A0.7500 0.7500 0.0 0 0 63.6500 68.9500"/>
<path d="M63.6500 83.4500 A0.7500 0.7500 0.0 0 0 64.4000 82.7000"/>
<path d="M68.9500 50.6500 L68.9500 63.6500 "/>
<path d="M69.7000 64.4000 L82.7000 64.4000 "/>
<path d="M82.7000 49.9000 L69.7000 49.9000 "/>
<path d="M83.4500 63.6500 L83.4500 50.6500 "/>
<path d="M69.7000 49.9000 A0.7500 0.7500 0.0 0 0 68.9500 50.6500"/>
<path d="M68.9500 63.6500 A0.7500 0.7500 0.0 0 0 69.7000 64.4000"/>
<path d="M83.4500 50.6500 A0.7500 0.7500 0.0 0 0 82.7000 49.9000"/>
<path d="M82.7000 64.4000 A0.7500 0.7500 0.0 0 0 83.4500 63.6500"/>
<path d="M30.8500 50.6500 L30.8500 63.6500 "/>
<path d="M31.6000 64.4000 L44.6000 64.4000 "/>
<path d="M44.6000 49.9000 L31.6000 49.9000 "/>
<path d="M45.3500 63.6500 L45.3500 50.6500 "/>
<path d="M31.6000 49.9000 A0.7500 0.7500 0.0 0 0 30.8500 50.6500"/>
<path d="M30.8500 63.6500 A0.7500 0.7500 0.0 0 0 31.6000 64.4000"/>
<path d="M45.3500 50.6500 A0.7500 0.7500 0.0 0 0 44.6000 49.9000"/>
<path d="M44.6000 64.4000 A0.7500 0.7500 0.0 0 0 45.3500 63.6500"/>
</g> 
</g><g id="substrate-copper" style="fill:#2d2522; stroke:#2d2522;"><g style="fill: none;stroke: #2d2522;stroke-width: 0.5000;stroke-opacity: 1;stroke-linecap: round;stroke-linejoin: round">
<path d="M30.8500 69.7000 L30.8500 82.7000 "/>
<path d="M31.6000 83.4500 L44.6000 83.4500 "/>
<path d="M44.6000 68.9500 L31.6000 68.9500 "/>
<path d="M45.3500 82.7000 L45.3500 69.7000 "/>
<path d="M31.6000 68.9500 A0.7500 0.7500 0.0 0 0 30.8500 69.7000"/>
<path d="M30.8500 82.7000 A0.7500 0.7500 0.0 0 0 31.6000 83.4500"/>
<path d="M45.3500 69.7000 A0.7500 0.7500 0.0 0 0 44.6000 68.9500"/>
<path d="M44.6000 83.4500 A0.7500 0.7500 0.0 0 0 45.3500 82.7000"/>
<path d="M68.9500 69.7000 L68.9500 82.7000 "/>
<path d="M69.7000 83.4500 L82.7000 83.4500 "/>
<path d="M82.7000 68.9500 L69.7000 68.9500 "/>
<path d="M83.4500 82.7000 L83.4500 69.7000 "/>
<path d="M69.7000 68.9500 A0.7500 0.7500 0.0 0 0 68.9500 69.7000"/>
<path d="M68.9500 82.7000 A0.7500 0.7500 0.0 0 0 69.7000 83.4500"/>
<path d="M83.4500 69.7000 A0.7500 0.7500 0.0 0 0 82.7000 68.9500"/>
<path d="M82.7000 83.4500 A0.7500 0.7500 0.0 0 0 83.4500 82.7000"/>
<path d="M49.9000 50.6500 L49.9000 63.6500 "/>
<path d="M50.6500 64.4000 L63.6500 64.4000 "/>
<path d="M63.6500 49.9000 L50.6500 49.9000 "/>
<path d="M64.4000 63.6500 L64.4000 50.6500 "/>
<path d="M50.6500 49.9000 A0.7500 0.7500 0.0 0 0 49.9000 50.6500"/>
<path d="M49.9000 63.6500 A0.7500 0.7500 0.0 0 0 50.6500 64.4000"/>
<path d="M64.4000 50.6500 A0.7500 0.7500 0.0 0 0 63.6500 49.9000"/>
<path d="M63.6500 64.4000 A0.7500 0.7500 0.0 0 0 64.4000 63.6500"/>
<path d="M49.9000 69.7000 L49.9000 82.7000 "/>
<path d="M50.6500 83.4500 L63.6500 83.4500 "/>
<path d="M63.6500 68.9500 L50.6500 68.9500 "/>
<path d="M64.4000 82.7000 L64.4000 69.7000 "/>
<path d="M50.6500 68.9500 A0.7500 0.7500 0.0 0 0 49.9000 69.7000"/>
<path d="M49.9000 82.7000 A0.7500 0.7500 0.0 0 0 50.6500 83.4500"/>
<path d="M64.4000 69.7000 A0.7500 0.7500 0.0 0 0 63.6500 68.9500"/>
<path d="M63.6500 83.4500 A0.7500 0.7500 0.0 0 0 64.4000 82.7000"/>
<path d="M68.9500 50.6500 L68.9500 63.6500 "/>
<path d="M69.7000 64.4000 L82.7000 64.4000 "/>
<path d="M82.7000 49.9000 L69.7000 49.9000 "/>
<path d="M83.4500 63.6500 L83.4500 50.6500 "/>
<path d="M69.7000 49.9000 A0.7500 0.7500 0.0 0 0 68.9500 50.6500"/>
<path d="M68.9500 63.6500 A0.7500 0.7500 0.0 0 0 69.7000 64.4000"/>
<path d="M83.4500 50.6500 A0.7500 0.7500 0.0 0 0 82.7000 49.9000"/>
<path d="M82.7000 64.4000 A0.7500 0.7500 0.0 0 0 83.4500 63.6500"/>
<path d="M30.8500 50.6500 L30.8500 63.6500 "/>
<path d="M31.6000 64.4000 L44.6000 64.4000 "/>
<path d="M44.6000 49.9000 L31.6000 49.9000 "/>
<path d="M45.3500 63.6500 L45.3500 50.6500 "/>
<path d="M31.6000 49.9000 A0.7500 0.7500 0.0 0 0 30.8500 50.6500"/>
<path d="M30.8500 63.6500 A0.7500 0.7500 0.0 0 0 31.6000 64.4000"/>
<path d="M45.3500 50.6500 A0.7500 0.7500 0.0 0 0 44.6000 49.9000"/>
<path d="M44.6000 64.4000 A0.7500 0.7500 0.0 0 0 45.3500 63.6500"/>
</g> 
</g><g id="substrate-pads" style="fill:#cfb96e; stroke:#cfb96e;" mask="url(#pads-mask)"><g style="fill: none;stroke: #cfb96e;stroke-width: 0.5000;stroke-opacity: 1;stroke-linecap: round;stroke-linejoin: round">
<path d="M30.8500 69.7000 L30.8500 82.7000 "/>
<path d="M31.6000 83.4500 L44.6000 83.4500 "/>
<path d="M44.6000 68.9500 L31.6000 68.9500 "/>
<path d="M45.3500 82.7000 L45.3500 69.7000 "/>
<path d="M31.6000 68.9500 A0.7500 0.7500 0.0 0 0 30.8500 69.7000"/>
<path d="M30.8500 82.7000 A0.7500 0.7500 0.0 0 0 31.6000 83.4500"/>
<path d="M45.3500 69.7000 A0.7500 0.7500 0.0 0 0 44.6000 68.9500"/>
<path d="M44.6000 83.4500 A0.7500 0.7500 0.0 0 0 45.3500 82.7000"/>
<path d="M68.9500 69.7000 L68.9500 82.7000 "/>
<path d="M69.7000 83.4500 L82.7000 83.4500 "/>
<path d="M82.7000 68.9500 L69.7000 68.9500 "/>
<path d="M83.4500 82.7000 L83.4500 69.7000 "/>
<path d="M69.7000 68.9500 A0.7500 0.7500 0.0 0 0 68.9500 69.7000"/>
<path d="M68.9500 82.7000 A0.7500 0.7500 0.0 0 0 69.7000 83.4500"/>
<path d="M83.4500 69.7000 A0.7500 0.7500 0.0 0 0 82.7000 68.9500"/>
<path d="M82.7000 83.4500 A0.7500 0.7500 0.0 0 0 83.4500 82.7000"/>
<path d="M49.9000 50.6500 L49.9000 63.6500 "/>
<path d="M50.6500 64.4000 L63.6500 64.4000 "/>
<path d="M63.6500 49.9000 L50.6500 49.9000 "/>
<path d="M64.4000 63.6500 L64.4000 50.6500 "/>
<path d="M50.6500 49.9000 A0.7500 0.7500 0.0 0 0 49.9000 50.6500"/>
<path d="M49.9000 63.6500 A0.7500 0.7500 0.0 0 0 50.6500 64.4000"/>
<path d="M64.4000 50.6500 A0.7500 0.7500 0.0 0 0 63.6500 49.9000"/>
<path d="M63.6500 64.4000 A0.7500 0.7500 0.0 0 0 64.4000 63.6500"/>
<path d="M49.9000 69.7000 L49.9000 82.7000 "/>
<path d="M50.6500 83.4500 L63.6500 83.4500 "/>
<path d="M63.6500 68.9500 L50.6500 68.9500 "/>
<path d="M64.4000 82.7000 L64.4000 69.7000 "/>
<path d="M50.6500 68.9500 A0.7500 0.7500 0.0 0 0 49.9000 69.7000"/>
<path d="M49.9000 82.7000 A0.7500 0.7500 0.0 0 0 50.6500 83.4500"/>
<path d="M64.4000 69.7000 A0.7500 0.7500 0.0 0 0 63.6500 68.9500"/>
<path d="M63.6500 83.4500 A0.7500 0.7500 0.0 0 0 64.4000 82.7000"/>
<path d="M68.9500 50.6500 L68.9500 63.6500 "/>
<path d="M69.7000 64.4000 L82.7000 64.4000 "/>
<path d="M82.7000 49.9000 L69.7000 49.9000 "/>
<path d="M83.4500 63.6500 L83.4500 50.6500 "/>
<path d="M69.7000 49.9000 A0.7500 0.7500 0.0 0 0 68.9500 50.6500"/>
<path d="M68.9500 63.6500 A0.7500 0.7500 0.0 0 0 69.7000 64.4000"/>
<path d="M83.4500 50.6500 A0.7500 0.7500 0.0 0 0 82.7000 49.9000"/>
<path d="M82.7000 64.4000 A0.7500 0.7500 0.0 0 0 83.4500 63.6500"/>
<path d="M30.8500 50.6500 L30.8500 63.6500 "/>
<path d="M31.6000 64.4000 L44.6000 64.4000 "/>
<path d="M44.6000 49.9000 L31.6000 49.9000 "/>
<path d="M45.3500 63.6500 L45.3500 50.6500 "/>
<path d="M31.6000 49.9000 A0.7500 0.7500 0.0 0 0 30.8500 50.6500"/>
<path d="M30.8500 63.6500 A0.7500 0.7500 0.0 0 0 31.6000 64.4000"/>
<path d="M45.3500 50.6500 A0.7500 0.7500 0.0 0 0 44.6000 49.9000"/>
<path d="M44.6000 64.4000 A0.7500 0.7500 0.0 0 0 45.3500 63.6500"/>
</g> 
</g><g id="substrate-outline" style="fill:#000000; stroke:#000000; stroke-width: 0.15"><g style="fill: none;stroke: #000000;stroke-width: #000000;stroke-opacity: 1;stroke-linecap: round;stroke-linejoin: round">
<path d="M85.7250 49.6250 L85.7250 83.7250 "/>
<path d="M28.5750 83.7250 L28.5750 49.6250 "/>
<path d="M30.5750 47.6250 L83.7250 47.6250 "/>
<path d="M30.5750 47.6250 A2.0000 2.0000 0.0 0 0 28.5750 49.6250"/>
<path d="M28.5750 83.7250 A2.0000 2.0000 0.0 0 0 30.5750 85.7250"/>
<path d="M83.7250 85.7250 A2.0000 2.0000 0.0 0 0 85.7250 83.7250"/>
<path d="M85.7250 49.6250 A2.0000 2.0000 0.0 0 0 83.7250 47.6250"/>
<path d="M83.7250 85.7250 L30.5750 85.7250 "/>
<path d="M31.1000 69.7000 L31.1000 82.7000 "/>
<path d="M31.6000 83.2000 L44.6000 83.2000 "/>
<path d="M44.6000 69.2000 L31.6000 69.2000 "/>
<path d="M45.1000 82.7000 L45.1000 69.7000 "/>
<path d="M31.6000 69.2000 A0.5000 0.5000 0.0 0 0 31.1000 69.7000"/>
<path d="M31.1000 82.7000 A0.5000 0.5000 0.0 0 0 31.6000 83.2000"/>
<path d="M45.1000 69.7000 A0.5000 0.5000 0.0 0 0 44.6000 69.2000"/>
<path d="M44.6000 83.2000 A0.5000 0.5000 0.0 0 0 45.1000 82.7000"/>
<path d="M69.2000 69.7000 L69.2000 82.7000 "/>
<path d="M69.7000 83.2000 L82.7000 83.2000 "/>
<path d="M82.7000 69.2000 L69.7000 69.2000 "/>
<path d="M83.2000 82.7000 L83.2000 69.7000 "/>
<path d="M69.7000 69.2000 A0.5000 0.5000 0.0 0 0 69.2000 69.7000"/>
<path d="M69.2000 82.7000 A0.5000 0.5000 0.0 0 0 69.7000 83.2000"/>
<path d="M83.2000 69.7000 A0.5000 0.5000 0.0 0 0 82.7000 69.2000"/>
<path d="M82.7000 83.2000 A0.5000 0.5000 0.0 0 0 83.2000 82.7000"/>
<path d="M50.1500 50.6500 L50.1500 63.6500 "/>
<path d="M50.6500 64.1500 L63.6500 64.1500 "/>
<path d="M63.6500 50.1500 L50.6500 50.1500 "/>
<path d="M64.1500 63.6500 L64.1500 50.6500 "/>
<path d="M50.6500 50.1500 A0.5000 0.5000 0.0 0 0 50.1500 50.6500"/>
<path d="M50.1500 63.6500 A0.5000 0.5000 0.0 0 0 50.6500 64.1500"/>
<path d="M64.1500 50.6500 A0.5000 0.5000 0.0 0 0 63.6500 50.1500"/>
<path d="M63.6500 64.1500 A0.5000 0.5000 0.0 0 0 64.1500 63.6500"/>
<path d="M50.1500 69.7000 L50.1500 82.7000 "/>
<path d="M50.6500 83.2000 L63.6500 83.2000 "/>
<path d="M63.6500 69.2000 L50.6500 69.2000 "/>
<path d="M64.1500 82.7000 L64.1500 69.7000 "/>
<path d="M50.6500 69.2000 A0.5000 0.5000 0.0 0 0 50.1500 69.7000"/>
<path d="M50.1500 82.7000 A0.5000 0.5000 0.0 0 0 50.6500 83.2000"/>
<path d="M64.1500 69.7000 A0.5000 0.5000 0.0 0 0 63.6500 69.2000"/>
<path d="M63.6500 83.2000 A0.5000 0.5000 0.0 0 0 64.1500 82.7000"/>
<path d="M69.2000 50.6500 L69.2000 63.6500 "/>
<path d="M69.7000 64.1500 L82.7000 64.1500 "/>
<path d="M82.7000 50.1500 L69.7000 50.1500 "/>
<path d="M83.2000 63.6500 L83.2000 50.6500 "/>
<path d="M69.7000 50.1500 A0.5000 0.5000 0.0 0 0 69.2000 50.6500"/>
<path d="M69.2000 63.6500 A0.5000 0.5000 0.0 0 0 69.7000 64.1500"/>
<path d="M83.2000 50.6500 A0.5000 0.5000 0.0 0 0 82.7000 50.1500"/>
<path d="M82.7000 64.1500 A0.5000 0.5000 0.0 0 0 83.2000 63.6500"/>
<path d="M31.1000 50.6500 L31.1000 63.6500 "/>
<path d="M31.6000 64.1500 L44.6000 64.1500 "/>
<path d="M44.6000 50.1500 L31.6000 50.1500 "/>
<path d="M45.1000 63.6500 L45.1000 50.6500 "/>
<path d="M31.6000 50.1500 A0.5000 0.5000 0.0 0 0 31.1000 50.6500"/>
<path d="M31.1000 63.6500 A0.5000 0.5000 0.0 0 0 31.6000 64.1500"/>
<path d="M45.1000 50.6500 A0.5000 0.5000 0.0 0 0 44.6000 50.1500"/>
<path d="M44.6000 64.1500 A0.5000 0.5000 0.0 0 0 45.1000 63.6500"/>
</g> 
</g></g></g></svg>