<?xml version="1.0" encoding="UTF-8" standalone="no"?>
<svg
   width="5mm"
   height="5mm"
   viewBox="0 0 18.897638 18.897638"
   version="1.1"
   xml:space="preserve"
   style="clip-rule:evenodd;fill-rule:evenodd;stroke-linejoin:round;stroke-miterlimit:2"
   id="svg1"
   sodipodi:docname="logo-lambdakb-5mm.svg"
   inkscape:version="1.4 (e7c3feb100, 2024-10-09)"
   xmlns:inkscape="http://www.inkscape.org/namespaces/inkscape"
   xmlns:sodipodi="http://sodipodi.sourceforge.net/DTD/sodipodi-0.dtd"
   xmlns="http://www.w3.org/2000/svg"
   xmlns:svg="http://www.w3.org/2000/svg"><defs
   id="defs1" /><sodipodi:namedview
   id="namedview1"
   pagecolor="#ffffff"
   bordercolor="#000000"
   borderopacity="0.25"
   inkscape:showpageshadow="2"
   inkscape:pageopacity="0.0"
   inkscape:pagecheckerboard="0"
   inkscape:deskcolor="#d1d1d1"
   inkscape:zoom="24.533333"
   inkscape:cx="-1.4877718"
   inkscape:cy="7.7038045"
   inkscape:window-width="2544"
   inkscape:window-height="1356"
   inkscape:window-x="8"
   inkscape:window-y="276"
   inkscape:window-maximized="1"
   inkscape:current-layer="g1"
   inkscape:document-units="mm" />
    <g
   transform="matrix(0.133308,0,0,0.133308,-55.411786,14.170162)"
   id="g1"
   style="fill:#000000">
        
    <path
   style="fill:none;stroke:#000000;stroke-width:3.40147;stroke-linejoin:round;stroke-dasharray:none;stroke-opacity:1"
   d="M 415.65108,-106.3127 H 556.844 V 34.880213 H 415.65108 Z"
   id="path1"
   sodipodi:nodetypes="ccccc" /><path
   d="m 434.24861,25.659488 35.02965,-92.373277 -1.5587,-4.347942 q -3.11739,-8.85996 -7.54738,-10.828839 -4.42996,-1.96888 -11.56716,-0.328147 l -1.80481,0.328147 -4.42998,-14.684562 q 1.80481,-0.820367 5.33239,-1.394623 3.60961,-0.574257 7.46534,-0.574257 10.33661,0 17.55585,5.250346 7.30126,5.250345 11.73123,16.981588 l 29.04098,76.21205521 q 3.3635,8.85995889 7.87552,10.99291179 4.51201,2.132953 11.07495,0.73833 l 1.96888,-0.49222 4.42997,14.520489 q -1.8048,0.738329 -5.25034,1.394623 -3.44554,0.656293 -7.46533,0.656293 -10.00848,0 -17.22771,-5.250345 -7.13718,-5.250348 -11.40309,-17.0636259 L 485.76763,-26.43379 q -2.21499,-6.152749 -3.93777,-12.059389 -1.72276,-5.906639 -3.28146,-11.813278 -1.47666,5.906639 -3.03535,11.895315 -1.47666,5.906639 -3.60961,11.977352 l -18.1301,52.093278 z"
   id="text1"
   style="font-weight:500;font-size:240.046px;font-family:Inter-Medium, Inter;stroke-width:0.699912"
   aria-label="λ" /></g>
</svg>
