<?xml version="1.0" encoding="UTF-8" standalone="no"?>
<svg
   role="img"
   viewBox="0 0 17.964072 17.964072"
   version="1.1"
   id="svg1"
   sodipodi:docname="opensourcehardware-3mm.svg"
   width="3mm"
   height="3mm"
   inkscape:version="1.4 (e7c3feb100, 2024-10-09)"
   xmlns:inkscape="http://www.inkscape.org/namespaces/inkscape"
   xmlns:sodipodi="http://sodipodi.sourceforge.net/DTD/sodipodi-0.dtd"
   xmlns="http://www.w3.org/2000/svg"
   xmlns:svg="http://www.w3.org/2000/svg"
   xmlns:rdf="http://www.w3.org/1999/02/22-rdf-syntax-ns#"
   xmlns:cc="http://creativecommons.org/ns#"
   xmlns:dc="http://purl.org/dc/elements/1.1/">
  <defs
     id="defs1" />
  <sodipodi:namedview
     id="namedview1"
     pagecolor="#ffffff"
     bordercolor="#000000"
     borderopacity="0.25"
     inkscape:showpageshadow="2"
     inkscape:pageopacity="0.0"
     inkscape:pagecheckerboard="0"
     inkscape:deskcolor="#d1d1d1"
     inkscape:zoom="43.369216"
     inkscape:cx="3.93136"
     inkscape:cy="6.4792502"
     inkscape:window-width="2544"
     inkscape:window-height="1356"
     inkscape:window-x="8"
     inkscape:window-y="276"
     inkscape:window-maximized="1"
     inkscape:current-layer="svg1"
     inkscape:document-units="mm"
     showguides="true">
    <sodipodi:guide
       position="0.00047523182,11.976286"
       orientation="0,-1"
       id="guide1"
       inkscape:locked="false" />
  </sodipodi:namedview>
  <title
     id="title1">Open Source Hardware</title>
  <path
     d="m 15.710407,8.7128169 c 0.04025,0.00735 0.07369,0.047619 0.07369,0.088994 v 1.7192201 a 0.09409518,0.09409518 0 0 1 -0.07369,0.08899 l -1.62966,0.303262 a 0.13774173,0.13774173 0 0 0 -0.09636,0.08559 l -0.509021,1.270853 a 0.14284327,0.14284327 0 0 0 0.0096,0.129805 l 0.925647,1.348509 a 0.09466201,0.09466201 0 0 1 -0.01135,0.115635 l -1.215301,1.215301 a 0.09466201,0.09466201 0 0 1 -0.115069,0.01077 l -1.32527,-0.909206 a 0.13037283,0.13037283 0 0 0 -0.126971,-0.0045 l -0.583845,0.311761 a 0.06858745,0.06858745 0 0 1 -0.09636,-0.03515 L 9.731958,11.541897 a 0.09126098,0.09126098 0 0 1 0.035146,-0.108833 l 0.1462444,-0.08956 c 0.027202,-0.01701 0.06406,-0.04534 0.092394,-0.07085 a 1.901176,1.901176 0 1 0 -2.0474161,0 c 0.028338,0.02608 0.06518,0.05442 0.092395,0.07085 l 0.1462445,0.08956 a 0.09069415,0.09069415 0 0 1 0.035146,0.108833 l -1.204533,2.910146 a 0.06858745,0.06858745 0 0 1 -0.096363,0.03571 L 6.3473723,14.176008 a 0.13037283,0.13037283 0 0 0 -0.1269718,0.004 l -1.3252701,0.909728 a 0.09522886,0.09522886 0 0 1 -0.115635,-0.01077 L 3.563627,13.863679 A 0.09466201,0.09466201 0 0 1 3.552858,13.748044 l 0.9256472,-1.349076 a 0.14227644,0.14227644 0 0 0 0.00964,-0.129238 l -0.508459,-1.270854 a 0.13830858,0.13830858 0 0 0 -0.096362,-0.08503 L 2.2536635,10.609459 a 0.09409518,0.09409518 0 0 1 -0.073689,-0.08899 V 8.8018106 c 0,-0.041371 0.033444,-0.081626 0.073689,-0.088994 L 3.9241362,8.4021892 A 0.14341012,0.14341012 0 0 0 4.023333,8.317163 L 4.5351881,7.122268 A 0.13944225,0.13944225 0 0 0 4.5272523,6.9935956 L 3.5539907,5.5747991 a 0.09466201,0.09466201 0 0 1 0.01077,-0.1150682 L 4.7800622,4.2432958 a 0.09409518,0.09409518 0 0 1 0.115635,-0.01077 l 1.4431706,0.9914003 c 0.03401,0.023241 0.092395,0.027208 0.129806,0.00907 L 7.6267249,4.7591186 c 0.039682,-0.013038 0.077657,-0.056684 0.085025,-0.098063 l 0.321398,-1.7271567 a 0.09466201,0.09466201 0 0 1 0.088994,-0.074256 h 1.7197877 c 0.041379,0 0.081058,0.033444 0.088993,0.073689 L 10.25232,4.6610555 a 0.14170959,0.14170959 0 0 0 0.08503,0.098063 l 1.158051,0.4738769 a 0.14284327,0.14284327 0 0 0 0.130372,-0.00907 l 1.44317,-0.9908335 a 0.09409518,0.09409518 0 0 1 0.11507,0.011337 l 1.215301,1.2153015 c 0.02948,0.028908 0.03401,0.081058 0.01134,0.1150682 l -0.973828,1.4187965 a 0.13887541,0.13887541 0 0 0 -0.0079,0.1286724 l 0.511854,1.1948953 a 0.14511063,0.14511063 0 0 0 0.0992,0.085026 l 1.669906,0.3106277"
     id="path1"
     style="stroke-width:0.566838" />
  <metadata
     id="metadata1">
    <rdf:RDF>
      <cc:Work
         rdf:about="">
        <dc:title>Open Source Hardware</dc:title>
      </cc:Work>
    </rdf:RDF>
  </metadata>
  <rect
     style="clip-rule:evenodd;fill:none;fill-rule:evenodd;stroke:#000000;stroke-width:0.718307;stroke-linecap:round;stroke-linejoin:round;stroke-miterlimit:2;stroke-dasharray:none"
     id="rect1"
     width="17.964327"
     height="17.964327"
     x="0"
     y="0" />
</svg>
