  0
SECTION
  2
HEADER
  9
$ANGBASE
  50
0.0
  9
$ANGDIR
  70
1
  9
$MEASUREMENT
  70
1
  0
ENDSEC
  0
SECTION
  2
TABLES
  0
TABLE
  2
LTYPE
  70
4
  0
LTYPE
  5
40F
  2
CONTINUOUS
  70
0
  3
Solid line
  72
65
  73
0
  40
0.0
  0
LTYPE
  5
410
  2
DASHDOT
 70
0
  3
Dash Dot ____ _ ____ _
 72
65
 73
4
 40
2.0
 49
1.25
 49
-0.25
 49
0.25
 49
-0.25
  0
LTYPE
  5
411
  2
DASHED
 70
0
  3
Dashed __ __ __ __ __
 72
65
 73
2
 40
0.75
 49
0.5
 49
-0.25
  0
LTYPE
  5
43B
  2
DOTTED
 70
0
  3
Dotted .  .  .  .
 72
65
 73
2
 40
0.2
 49
0.0
 49
-0.2
  0
ENDTAB
  0
TABLE
  2
STYLE
  70
4
  0
STYLE
  2
KICAD
  70
0
  40
0
  41
1
  42
1
  50
0
  71
0
  3
isocp.shx
  0
STYLE
  2
KICADB
  70
0
  40
0
  41
1
  42
1
  50
0
  71
0
  3
isocp.shx
  0
STYLE
  2
KICADI
  70
0
  40
0
  41
1
  42
1
  50
15
  71
0
  3
isocp.shx
  0
STYLE
  2
KICADBI
  70
0
  40
0
  41
1
  42
1
  50
15
  71
0
  3
isocp.shx
  0
ENDTAB
  0
TABLE
  2
LAYER
  70
1
  0
LAYER
  2
BLACK
  70
0
  62
7
  6
CONTINUOUS
  0
ENDTAB
  0
ENDSEC
  0
SECTION
  2
ENTITIES
0
LINE
8
BLACK
6
CONTINUOUS
10
85.7249999999999943
20
-49.625
11
85.7249999999999943
21
-83.7249999999999943
0
LINE
8
BLACK
6
CONTINUOUS
10
28.5749999999999993
20
-83.7249999999999943
11
28.5749999999999993
21
-49.625
0
LINE
8
BLACK
6
CONTINUOUS
10
30.5749999999999993
20
-47.625
11
83.7249999999999943
21
-47.625
0
ARC
8
BLACK
10
30.5749999999999993
20
-49.625
40
2.
50
90.00000000
51
180.00000000
0
ARC
8
BLACK
10
30.5749999999999993
20
-83.7249999999999943
40
2.
50
-180.00000000
51
-90.00000000
0
ARC
8
BLACK
10
83.7249999999999943
20
-83.7249999999999943
40
2.
50
-90.00000000
51
-0.00000000
0
ARC
8
BLACK
10
83.7249999999999943
20
-49.625
40
2.
50
0.00000000
51
90.00000000
0
LINE
8
BLACK
6
CONTINUOUS
10
83.7249999999999943
20
-85.7249999999999943
11
30.5749999999999993
21
-85.7249999999999943
0
LINE
8
BLACK
6
CONTINUOUS
10
31.0999999999999979
20
-69.7000000000000028
11
31.0999999999999979
21
-82.7000000000000028
0
LINE
8
BLACK
6
CONTINUOUS
10
31.5999999999999979
20
-83.2000000000000028
11
44.6000000000000014
21
-83.2000000000000028
0
LINE
8
BLACK
6
CONTINUOUS
10
44.6000000000000014
20
-69.2000000000000028
11
31.5999999999999979
21
-69.2000000000000028
0
LINE
8
BLACK
6
CONTINUOUS
10
45.1000000000000014
20
-82.7000000000000028
11
45.1000000000000014
21
-69.7000000000000028
0
ARC
8
BLACK
10
31.6000009999999989
20
-69.7000010000000003
40
0.500001000001
50
90.00011459
51
179.99988541
0
ARC
8
BLACK
10
31.6000009999999989
20
-82.6999989999999912
40
0.500001000001
50
-179.99988541
51
-90.00011459
0
ARC
8
BLACK
10
44.6000000000000014
20
-69.7000000000000028
40
0.5
50
0.00000000
51
90.00000000
0
ARC
8
BLACK
10
44.6000000000000014
20
-82.7000000000000028
40
0.5
50
-90.00000000
51
-0.00000000
0
LINE
8
BLACK
6
CONTINUOUS
10
69.2000000000000028
20
-69.7000000000000028
11
69.2000000000000028
21
-82.7000000000000028
0
LINE
8
BLACK
6
CONTINUOUS
10
69.7000000000000028
20
-83.2000000000000028
11
82.7000000000000028
21
-83.2000000000000028
0
LINE
8
BLACK
6
CONTINUOUS
10
82.7000000000000028
20
-69.2000000000000028
11
69.7000000000000028
21
-69.2000000000000028
0
LINE
8
BLACK
6
CONTINUOUS
10
83.2000000000000028
20
-82.7000000000000028
11
83.2000000000000028
21
-69.7000000000000028
0
ARC
8
BLACK
10
69.7000010000000003
20
-69.7000010000000003
40
0.500001000001
50
90.00011459
51
179.99988541
0
ARC
8
BLACK
10
69.7000010000000003
20
-82.6999989999999912
40
0.500001000001
50
-179.99988541
51
-90.00011459
0
ARC
8
BLACK
10
82.7000000000000028
20
-69.7000000000000028
40
0.5
50
0.00000000
51
90.00000000
0
ARC
8
BLACK
10
82.7000000000000028
20
-82.7000000000000028
40
0.5
50
-90.00000000
51
-0.00000000
0
LINE
8
BLACK
6
CONTINUOUS
10
50.1499999999999986
20
-50.6499999999999986
11
50.1499999999999986
21
-63.6499999999999986
0
LINE
8
BLACK
6
CONTINUOUS
10
50.6499999999999986
20
-64.1499999999999915
11
63.6499999999999986
21
-64.1499999999999915
0
LINE
8
BLACK
6
CONTINUOUS
10
63.6499999999999986
20
-50.1499999999999986
11
50.6499999999999986
21
-50.1499999999999986
0
LINE
8
BLACK
6
CONTINUOUS
10
64.1499999999999915
20
-63.6499999999999986
11
64.1499999999999915
21
-50.6499999999999986
0
ARC
8
BLACK
10
50.6500009999999961
20
-50.6500009999999961
40
0.500001000001
50
90.00011459
51
179.99988541
0
ARC
8
BLACK
10
50.6500009999999961
20
-63.649998999999994
40
0.500001000001
50
-179.99988541
51
-90.00011459
0
ARC
8
BLACK
10
63.6499999999999986
20
-50.6499999999999986
40
0.5
50
0.00000000
51
90.00000000
0
ARC
8
BLACK
10
63.6499999999999986
20
-63.6499999999999986
40
0.5
50
-90.00000000
51
-0.00000000
0
LINE
8
BLACK
6
CONTINUOUS
10
50.1499999999999986
20
-69.7000000000000028
11
50.1499999999999986
21
-82.7000000000000028
0
LINE
8
BLACK
6
CONTINUOUS
10
50.6499999999999986
20
-83.2000000000000028
11
63.6499999999999986
21
-83.2000000000000028
0
LINE
8
BLACK
6
CONTINUOUS
10
63.6499999999999986
20
-69.2000000000000028
11
50.6499999999999986
21
-69.2000000000000028
0
LINE
8
BLACK
6
CONTINUOUS
10
64.1499999999999915
20
-82.7000000000000028
11
64.1499999999999915
21
-69.7000000000000028
0
ARC
8
BLACK
10
50.6500009999999961
20
-69.7000010000000003
40
0.500001000001
50
90.00011459
51
179.99988541
0
ARC
8
BLACK
10
50.6500009999999961
20
-82.6999989999999912
40
0.500001000001
50
-179.99988541
51
-90.00011459
0
ARC
8
BLACK
10
63.6499999999999986
20
-69.7000000000000028
40
0.5
50
0.00000000
51
90.00000000
0
ARC
8
BLACK
10
63.6499999999999986
20
-82.7000000000000028
40
0.5
50
-90.00000000
51
-0.00000000
0
LINE
8
BLACK
6
CONTINUOUS
10
69.2000000000000028
20
-50.6499999999999986
11
69.2000000000000028
21
-63.6499999999999986
0
LINE
8
BLACK
6
CONTINUOUS
10
69.7000000000000028
20
-64.1499999999999915
11
82.7000000000000028
21
-64.1499999999999915
0
LINE
8
BLACK
6
CONTINUOUS
10
82.7000000000000028
20
-50.1499999999999986
11
69.7000000000000028
21
-50.1499999999999986
0
LINE
8
BLACK
6
CONTINUOUS
10
83.2000000000000028
20
-63.6499999999999986
11
83.2000000000000028
21
-50.6499999999999986
0
ARC
8
BLACK
10
69.7000010000000003
20
-50.6500009999999961
40
0.500001000001
50
90.00011459
51
179.99988541
0
ARC
8
BLACK
10
69.7000010000000003
20
-63.649998999999994
40
0.500001000001
50
-179.99988541
51
-90.00011459
0
ARC
8
BLACK
10
82.7000000000000028
20
-50.6499999999999986
40
0.5
50
0.00000000
51
90.00000000
0
ARC
8
BLACK
10
82.7000000000000028
20
-63.6499999999999986
40
0.5
50
-90.00000000
51
-0.00000000
0
LINE
8
BLACK
6
CONTINUOUS
10
31.0999999999999979
20
-50.6499999999999986
11
31.0999999999999979
21
-63.6499999999999986
0
LINE
8
BLACK
6
CONTINUOUS
10
31.5999999999999979
20
-64.1499999999999915
11
44.6000000000000014
21
-64.1499999999999915
0
LINE
8
BLACK
6
CONTINUOUS
10
44.6000000000000014
20
-50.1499999999999986
11
31.5999999999999979
21
-50.1499999999999986
0
LINE
8
BLACK
6
CONTINUOUS
10
45.1000000000000014
20
-63.6499999999999986
11
45.1000000000000014
21
-50.6499999999999986
0
ARC
8
BLACK
10
31.6000009999999989
20
-50.6500009999999961
40
0.500001000001
50
90.00011459
51
179.99988541
0
ARC
8
BLACK
10
31.6000009999999989
20
-63.649998999999994
40
0.500001000001
50
-179.99988541
51
-90.00011459
0
ARC
8
BLACK
10
44.6000000000000014
20
-50.6499999999999986
40
0.5
50
0.00000000
51
90.00000000
0
ARC
8
BLACK
10
44.6000000000000014
20
-63.6499999999999986
40
0.5
50
-90.00000000
51
-0.00000000
  0
ENDSEC
  0
EOF
